<svg xmlns="http://www.w3.org/2000/svg" width="105" height="53" viewBox="0 0 105 53"><path fill="#FFF" d="M26 6.89344262C26 8.37249545 25.7080838 10.0628415 25.1242515 11.9644809 24.5404192 13.8661202 23.6776447 15.807377 22.5359281 17.7882514 21.3942116 19.7691257 20.0773453 21.598133 18.5853293 23.2752732 17.0933134 24.9524135 15.3288423 26.3258197 13.2919162 27.3954918 11.25499 28.4651639 9.15319361 29 6.98652695 29 4.81986028 29 3.11377246 28.385929 1.86826347 27.1577869.622754491 25.9296448 0 24.2326958 0 22.0669399 0 20.5878871.291916168 18.897541.875748503 16.9959016 1.45958084 15.0942623 2.32235529 13.1530055 3.46407186 11.1721311 4.60578842 9.19125683 5.92265469 7.36885246 7.41467066 5.70491803 8.90668663 4.04098361 10.6711577 2.67418033 12.7080838 1.6045082 14.74501.534836066 16.8468064 0 19.0134731 0 21.1801397 0 22.8862275.607468124 24.1317365 1.82240437 25.3772455 3.03734062 26 4.7276867 26 6.89344262ZM21.4071856 6.53688525C21.4071856 3.63160291 20.3692615 2.17896175 18.2934132 2.17896175 16.5548902 2.17896175 14.6152695 3.30145719 12.4745509 5.54644809 10.3338323 7.79143898 8.51746507 10.5052368 7.0254491 13.6878415 5.53343313 16.8704463 4.78742515 19.7163024 4.78742515 22.2254098 4.78742515 25.1306922 5.8253493 26.5833333 7.9011976 26.5833333 9.61377246 26.5833333 11.5469062 25.4608379 13.7005988 23.215847 15.8542914 20.9708561 17.6771457 18.2570583 19.1691617 15.0744536 20.6611776 11.8918488 21.4071856 9.04599271 21.4071856 6.53688525ZM32.6943574 16.7787611C33.5825496 16.7787611 35.0846395 15.6106195 37.200627 13.2743363 37.200627 13.2212389 37.2920585 13.1084071 37.4749216 12.9358407 37.6577847 12.7632743 38.1018809 12.5641593 38.80721 12.3384956 39.5125392 12.1128319 40.3876698 12 41.4326019 12 42.477534 12 43 12.1858407 43 12.5575221 43 12.7699115 42.438349 13.2212389 41.315047 13.9115044 40.191745 14.6017699 38.9508882 15.3384956 37.5924765 16.1216814 36.2340648 16.9048673 34.9932079 17.8340708 33.869906 18.909292 32.746604 19.9845133 32.184953 20.960177 32.184953 21.8362832 32.184953 23.2699115 32.2633229 24.5973451 32.4200627 25.8185841 32.5768025 27.039823 32.7335423 27.9026549 32.8902821 28.4070796L33.1253918 29.1637168C33.1253918 29.5353982 32.9164054 29.7212389 32.4984326 29.7212389 30.1212121 29.7212389 28.9326019 29.2300885 28.9326019 28.2477876L28.9326019 27.7300885C28.9326019 24.5442478 28.6778997 22.9513274 28.1684953 22.9513274 27.6590909 22.9513274 26.9276385 23.4557522 25.9741379 24.4646018 25.0206374 25.4734513 24.2042842 26.4823009 23.5250784 27.4911504L22.5062696 28.9646018C21.9576803 29.6548673 20.9649948 30 19.5282132 30 19.0579937 30 18.6922675 29.9535398 18.4310345 29.8606195 18.1698015 29.7676991 18.0261233 29.6681416 18 29.5619469L18 29.4424779C18 29.0442478 19.1755486 27.7831858 21.5266458 25.659292 23.8777429 23.5353982 25.7716823 21.9159292 27.2084639 20.800885 27.9660397 20.2168142 28.3448276 19.4933628 28.3448276 18.630531 28.3448276 17.7676991 28.292581 17.0044248 28.1880878 16.340708 28.0835946 15.6769912 27.9595089 15.2323009 27.8158307 15.0066372 27.6721526 14.7809735 27.5480669 14.5884956 27.4435737 14.4292035 27.3390805 14.2699115 27.2868339 14.1371681 27.2868339 14.0309735 27.2868339 13.6327434 27.6982759 13.2743363 28.5211599 12.9557522 29.3440439 12.6371681 30.0101881 12.4778761 30.5195925 12.4778761 31.0289969 12.4778761 31.3751306 12.5176991 31.5579937 12.5973451 31.8714734 12.7035398 32.0282132 13.4269912 32.0282132 14.7676991 32.0282132 16.1084071 32.2502612 16.7787611 32.6943574 16.7787611ZM28.6585987 53C27.5528662 53 27 52.0831696 27 50.2495088 27 48.4158481 27.5397028 46.3791749 28.6191083 44.1394892 29.6985138 41.8998035 30.9951168 39.843484 32.5089172 37.9705305 34.0227176 36.0975769 35.6352442 34.5062213 37.3464968 33.1964637 39.0577495 31.886706 40.492569 31.2318271 41.6509554 31.2318271 42.0458599 31.2318271 42.2433121 31.3235102 42.2433121 31.5068762 42.2433121 31.6902423 42.0853503 31.8605108 41.7694268 32.0176817 40.7690021 32.5415848 39.4987261 33.6614276 37.9585987 35.3772102 36.4184713 37.0929928 35.0231423 39.0576293 33.7726115 41.2711198 32.5220807 43.4846103 31.8968153 45.3510151 31.8968153 46.870334 31.8968153 47.5252128 32.133758 47.8526523 32.6076433 47.8526523 33.529087 47.8526523 34.9244161 46.5690897 36.7936306 44.0019646 39.8212314 39.8893255 42.9146497 34.6502947 46.0738854 28.2848723 47.0216561 26.3988212 47.4955414 25.2724296 47.4955414 24.9056974 47.4955414 24.5389653 47.3902335 24.3555992 47.1796178 24.3555992 46.9163482 24.3555992 46.6530786 24.486575 46.3898089 24.7485265 43.441189 27.2632613 41.1507431 28.5206287 39.5184713 28.5206287 38.333758 28.5206287 37.7414013 27.8853962 37.7414013 26.6149312 37.7414013 25.3444663 38.4456476 23.3798297 39.8541401 20.7210216 41.2626327 18.0622135 42.6908705 16.0124427 44.1388535 14.5717092 44.4547771 14.2573674 44.889172 14.0019646 45.4420382 13.805501 45.9949045 13.6090373 46.5675159 13.5108055 47.1598726 13.5108055 47.7522293 13.5108055 48.0484076 13.6417813 48.0484076 13.9037328 48.0484076 14.0085134 47.6271762 14.611002 46.7847134 15.7111984 44.2309979 19.0903733 42.9541401 21.5003274 42.9541401 22.9410609 42.9541401 23.5697446 43.2305732 23.8840864 43.7834395 23.8840864 44.7575372 23.8840864 46.2647558 22.9410609 48.3050955 21.0550098 50.3454352 19.1689587 52.129087 16.9554682 53.656051 14.4145383 54.1299363 13.4715128 55.1830149 13 56.8152866 13 57.6050955 13 58 13.1571709 58 13.4715128 58 13.5500982 57.9605096 13.6548788 57.8815287 13.7858546 55.3278132 17.9770792 52.9978769 22.0176817 50.8917197 25.9076621 48.7855626 29.7976424 47.0940552 32.7969876 45.8171975 34.9056974 44.5403397 37.0144073 43.1186837 39.2082515 41.5522293 41.4872299 39.9857749 43.7662083 38.485138 45.724296 37.0503185 47.3614931 35.6154989 48.9986902 34.1543524 50.3477407 32.666879 51.4086444 31.1794055 52.4695481 29.8433121 53 28.6585987 53ZM49.5832241 47.8306064C50.7103539 47.8306064 52.4862385 46.0088226 54.9108781 42.3652551 57.3355177 38.7216875 59.491481 35.0846968 61.378768 31.454283 63.266055 27.8238691 64.2096986 25.8179339 64.2096986 25.4364774 64.2096986 25.0550209 64.1048493 24.8642926 63.8951507 24.8642926 63.6854522 24.8642926 63.3315858 25.0681745 62.8335518 25.4759384 62.3355177 25.8837023 61.8047182 26.337504 61.2411533 26.8373436 60.6775885 27.3371832 59.9567497 27.7909849 59.078637 28.1987488 58.2005242 28.6065127 57.3289646 28.8103946 56.4639581 28.8103946 55.3892529 28.8103946 54.8519004 28.0080205 54.8519004 26.4032724 54.8519004 25.1142124 55.2057667 23.6607315 55.9134993 22.0428296 56.621232 20.4249278 57.5910878 18.8596407 58.8230668 17.3469682 60.0550459 15.8342958 61.6671035 14.5649663 63.6592398 13.5389798 65.6513761 12.5129933 67.7876802 12 70.068152 12 70.6448231 12 71.2739187 12.1052294 71.9554391 12.3156882 73.3184797 12.7366057 74 13.4995188 74 14.6044273 74 15.3936477 73.7771953 15.7882579 73.3315858 15.7882579 73.2005242 15.7882579 72.9777195 15.6961822 72.6631717 15.5120308 71.7195282 14.8806545 70.2647444 14.5649663 68.2988204 14.5649663 66.3328965 14.5649663 64.4259502 15.544915 62.5779817 17.5048123 60.7300131 19.4647097 59.8060288 21.3785691 59.8060288 23.2463908 59.8060288 23.9040744 60.0812582 24.2329163 60.6317169 24.2329163 61.4705111 24.2329163 62.6304063 23.6344241 64.1114024 22.4374398 65.5923984 21.2404556 67.0668414 19.4712865 68.5347313 17.1299326 68.6133683 16.7616298 69.2162516 16.5774783 70.3433814 16.5774783 71.4705111 16.5774783 72.034076 16.7747834 72.034076 17.1693936 72.034076 17.4587745 71.1231979 19.3463266 69.3014417 22.83205 67.4796855 26.3177735 65.9397117 29.1852743 64.6815203 31.4345525 63.423329 33.6838306 61.9095675 36.1764517 60.1402359 38.9124158 58.3709043 41.6483799 56.6998689 44.0028874 55.1271298 45.9759384 53.5543906 47.9489894 51.9161206 49.6129291 50.2123198 50.9677575 48.508519 52.3225858 46.9882045 53 45.6513761 53 44.5504587 53 44 52.0792429 44 50.2377286 44 48.3962143 44.5373526 46.3508181 45.6120577 44.1015399 46.6867628 41.8522618 47.9777195 39.7871351 49.4849279 37.9061598 50.9921363 36.0251845 52.5976409 34.4270132 54.3014417 33.1116458 56.0052425 31.7962785 57.4338139 31.1385948 58.587156 31.1385948L58.7051114 31.1385948C59.0196592 31.1385948 59.1769332 31.2306705 59.1769332 31.4148219 59.1769332 31.5989734 59.0196592 31.7699711 58.7051114 31.9278152 57.7090433 32.4276548 56.4442988 33.5391402 54.9108781 35.2622714 53.3774574 36.9854026 51.9882045 38.9650305 50.7431193 41.201155 49.4980341 43.4372794 48.8754915 45.3182547 48.8754915 46.8440808L48.8754915 46.8835419C48.8754915 47.5149182 49.1114024 47.8306064 49.5832241 47.8306064ZM76.3636364 31C74.8571429 31 73.7532468 30.5460526 73.0519481 29.6381579 72.3506494 28.7302632 72 27.6118421 72 26.2828947 72 24.9539474 72.2857143 23.5592105 72.8571429 22.0986842 73.4285714 20.6381579 74.2142857 19.2236842 75.2142857 17.8552632 76.2142857 16.4868421 77.525974 15.3355263 79.1493506 14.4013158 80.7727273 13.4671053 82.5194805 13 84.3896104 13 85.2467532 13 85.8961039 13.2697368 86.3376623 13.8092105 86.7792208 14.3486842 87 14.9868421 87 15.7236842 87 17.25 86.4675325 18.6710526 85.4025974 19.9868421 84.3376623 21.3026316 83.1558442 22.3026316 81.8571429 22.9868421 80.5584416 23.6710526 79.4090909 24.0592105 78.4090909 24.1513158 77.4090909 24.2434211 76.7402597 24.4342105 76.4025974 24.7236842 76.0649351 25.0131579 75.8961039 25.5921053 75.8961039 26.4605263 75.8961039 27.3289474 76.0909091 27.9868421 76.4805195 28.4342105 76.8701299 28.8815789 77.2597403 29.1842105 77.6493506 29.3421053 78.038961 29.5 78.2337662 29.6578947 78.2337662 29.8157895 78.2337662 30.1842105 78.038961 30.4736842 77.6493506 30.6842105 77.2597403 30.8947368 76.8311688 31 76.3636364 31ZM83.2207792 16.7105263C83.2207792 15.8947368 82.8571429 15.4868421 82.1298701 15.4868421 81.0909091 15.4868421 79.9415584 16.2236842 78.6818182 17.6973684 77.4220779 19.1710526 76.7922078 20.5 76.7922078 21.6842105 76.7922078 21.9736842 77.012987 22.1184211 77.4545455 22.1184211 78.5194805 22.1184211 79.7467532 21.5657895 81.1363636 20.4605263 82.525974 19.3552632 83.2207792 18.1052632 83.2207792 16.7105263ZM95.0994475 30C94.3775322 30 94.0165746 29.8294753 94.0165746 29.4884259L94.0939227 29.2523148C95.640884 26.8912037 96.9686924 24.6153549 98.0773481 22.4247685 99.1860037 20.2341821 99.7403315 18.8109568 99.7403315 18.1550926 99.7403315 17.945216 99.6887661 17.78125 99.5856354 17.6631944 99.4825046 17.5451389 99.3278085 17.4729938 99.121547 17.4467593 98.1160221 17.4467593 96.7688766 18.1026235 95.0801105 19.4143519 93.3913444 20.7260802 91.9088398 22.0771605 90.6325967 23.4675926 89.3563536 24.8580247 88.4088398 25.9926698 87.7900552 26.8715278 87.1712707 27.7503858 86.2430939 28.1898148 85.0055249 28.1898148 84.335175 28.1898148 84 28.0192901 84 27.6782407 84 26.996142 85.2633517 24.5891204 87.7900552 20.4571759 90.3167587 16.3252315 91.9926335 14.1018519 92.8176796 13.787037 93.2559853 13.5246914 93.8167587 13.3935185 94.5 13.3935185 95.1832413 13.3935185 95.5248619 13.53125 95.5248619 13.806713 95.5248619 14.0821759 95.2154696 14.6790123 94.5966851 15.5972222 93.9779006 16.5154321 93.6685083 17.1057099 93.6685083 17.3680556 93.7200737 17.5779321 93.8296501 17.6828704 93.9972376 17.6828704 94.164825 17.6828704 94.3130755 17.6304012 94.441989 17.525463 98.2578269 14.5084877 101.300184 13 103.569061 13 104.52302 13 105 13.5640432 105 14.6921296 105 15.4266975 104.465009 17.0138889 103.395028 19.4537037 102.325046 21.8935185 100.971455 24.2611883 99.3342541 26.556713 97.6970534 28.8522377 96.2854512 30 95.0994475 30Z"/></svg>