<svg xmlns="http://www.w3.org/2000/svg" width="40" height="40" viewBox="0 0 40 40"><path fill="#FFF" d="M35.9102244,17.9551122 C35.9102244,8.04655029 27.8636741,0 17.9551122,0 C8.04655029,0 0,8.04655029 0,17.9551122 C0,27.8636741 8.04655029,35.9102244 17.9551122,35.9102244 C22.4438903,35.9102244 26.5336658,34.247714 29.6591854,31.5544472 L38.1047382,40 L40,38.1047382 L31.5544472,29.6591854 C34.247714,26.5336658 35.9102244,22.4438903 35.9102244,17.9551122 Z M17.9551122,33.2502078 C9.50955943,33.2502078 2.66001663,26.400665 2.66001663,17.9551122 C2.66001663,9.50955943 9.50955943,2.66001663 17.9551122,2.66001663 C26.400665,2.66001663 33.2502078,9.50955943 33.2502078,17.9551122 C33.2502078,26.400665 26.400665,33.2502078 17.9551122,33.2502078 Z"/></svg>